<svg height="512pt" viewBox="0 -68 512 512" width="512pt" xmlns="http://www.w3.org/2000/svg" xmlns:xlink="http://www.w3.org/1999/xlink"><linearGradient id="a"><stop offset="0" stop-color="#662d91"/><stop offset=".437" stop-color="#3873b3"/><stop offset="1" stop-color="#00c9dd"/></linearGradient><linearGradient id="b" gradientTransform="matrix(1.134257 0 0 -1.134257 0 434.156427)" gradientUnits="userSpaceOnUse" x1="37.6164" x2="411.4105" xlink:href="#a" y1="405.3371" y2="31.5429"/><linearGradient id="c" gradientTransform="matrix(1.134257 0 0 -1.134257 0 434.156427)" gradientUnits="userSpaceOnUse" x1="1.8812" x2="375.6753" xlink:href="#a" y1="369.6018" y2="-4.1923"/><linearGradient id="d" gradientTransform="matrix(1.134257 0 0 -1.134257 0 434.156427)" gradientUnits="userSpaceOnUse" x1="18.8082" x2="392.6023" xlink:href="#a" y1="386.5289" y2="12.7348"/><linearGradient id="e" gradientTransform="matrix(1.134257 0 0 -1.134257 0 434.156427)" gradientUnits="userSpaceOnUse" x1="-54.5438" x2="319.2503" xlink:href="#a" y1="313.1769" y2="-60.6172"/><linearGradient id="f" gradientTransform="matrix(1.134257 0 0 -1.134257 0 434.156427)" gradientUnits="userSpaceOnUse" x1="-18.8082" x2="354.9859" xlink:href="#a" y1="348.9124" y2="-24.8816"/><linearGradient id="g" gradientTransform="matrix(1.134257 0 0 -1.134257 0 434.156427)" gradientUnits="userSpaceOnUse" x1="54.5438" x2="428.3379" xlink:href="#a" y1="422.2644" y2="48.4703"/><linearGradient id="h" gradientTransform="matrix(1.134257 0 0 -1.134257 0 434.156427)" gradientUnits="userSpaceOnUse" x1="101.5643" x2="475.3583" xlink:href="#a" y1="469.2849" y2="95.4908"/><path d="m486.398438 102.402344h-42.664063v-76.800782c0-14.140624-11.464844-25.601562-25.601563-25.601562h-392.53125c-14.140624 0-25.601562 11.460938-25.601562 25.601562v221.863282c0 14.140625 11.460938 25.601562 25.601562 25.601562h42.664063v76.800782c0 14.136718 11.460937 25.601562 25.601563 25.601562h392.53125c14.140624 0 25.601562-11.464844 25.601562-25.601562v-221.867188c0-14.140625-11.460938-25.597656-25.601562-25.597656zm-469.332032-76.800782c0-4.714843 3.820313-8.535156 8.535156-8.535156h392.53125c4.714844 0 8.535157 3.820313 8.535157 8.535156v17.066407h-409.601563zm51.199219 230.398438h-42.664063c-4.714843 0-8.535156-3.820312-8.535156-8.53125v-110.933594h51.199219zm1.570313-136.535156h-52.769532v-59.730469h409.601563v42.664063h-332.800781c-10.808594.046874-20.425782 6.878906-24.03125 17.066406zm425.097656 230.402344c0 4.710937-3.820313 8.53125-8.535156 8.53125h-392.53125c-4.714844 0-8.535157-3.820313-8.535157-8.53125v-221.867188c0-4.714844 3.820313-8.535156 8.535157-8.535156h392.53125c4.714843 0 8.535156 3.820312 8.535156 8.535156zm0 0" fill="url(#b)"/><path d="m175.054688 234.15625c.230468.1875.476562.359375.730468.511719 25.921875 11.300781 56.097656-.550781 67.398438-26.472657 11.300781-25.921874-.550782-56.09375-26.472656-67.394531-13.046876-5.691406-27.875-5.691406-40.925782 0-.253906.152344-.5.324219-.730468.511719-6.71875-3.144531-14.039063-4.773438-21.453126-4.78125-28.277343 0-51.203124 22.925781-51.203124 51.203125s22.925781 51.199219 51.203124 51.199219c7.414063-.003906 14.734376-1.636719 21.453126-4.777344zm16.988281-80.128906c1.398437-.230469 2.808593-.371094 4.222656-.425782 18.851563 0 34.132813 15.28125 34.132813 34.132813s-15.28125 34.132813-34.132813 34.132813c-1.429687-.054688-2.855469-.199219-4.265625-.425782 17.007812-19.253906 17.007812-48.164062 0-67.414062zm-72.578125 33.707031c0-18.851563 15.285156-34.132813 34.136718-34.132813 18.851563 0 34.132813 15.28125 34.132813 34.132813s-15.28125 34.132813-34.132813 34.132813c-18.851562 0-34.136718-15.28125-34.136718-34.132813zm0 0" fill="url(#c)"/><path d="m443.734375 264.535156h-290.132813c-4.714843 0-8.535156 3.820313-8.535156 8.53125 0 4.714844 3.820313 8.53125 8.535156 8.53125h290.132813c4.710937 0 8.53125-3.816406 8.53125-8.53125 0-4.710937-3.820313-8.53125-8.53125-8.53125zm0 0" fill="url(#d)"/><path d="m196.265625 307.199219h-42.664063c-4.714843 0-8.535156 3.820312-8.535156 8.535156 0 4.710937 3.820313 8.53125 8.535156 8.53125h42.664063c4.714844 0 8.535156-3.820313 8.535156-8.53125 0-4.714844-3.820312-8.535156-8.535156-8.535156zm0 0" fill="url(#e)"/><path d="m281.597656 307.199219h-51.199218c-4.710938 0-8.53125 3.820312-8.53125 8.535156 0 4.710937 3.820312 8.53125 8.53125 8.53125h51.199218c4.714844 0 8.535156-3.820313 8.535156-8.53125 0-4.714844-3.820312-8.535156-8.535156-8.535156zm0 0" fill="url(#f)"/><path d="m366.933594 307.199219h-51.199219c-4.714844 0-8.535156 3.820312-8.535156 8.535156 0 4.710937 3.820312 8.53125 8.535156 8.53125h51.199219c4.710937 0 8.53125-3.820313 8.53125-8.53125 0-4.714844-3.820313-8.535156-8.53125-8.535156zm0 0" fill="url(#d)"/><path d="m443.734375 307.199219h-42.667969c-4.714844 0-8.53125 3.820312-8.53125 8.535156 0 4.710937 3.816406 8.53125 8.53125 8.53125h42.667969c4.710937 0 8.53125-3.820313 8.53125-8.53125 0-4.714844-3.820313-8.535156-8.53125-8.535156zm0 0" fill="url(#g)"/><path d="m435.199219 162.132812h-51.199219c-9.425781 0-17.066406 7.644532-17.066406 17.070313v34.132813c0 9.425781 7.640625 17.066406 17.066406 17.066406h51.199219c9.425781 0 17.066406-7.640625 17.066406-17.066406v-34.132813c0-9.429687-7.640625-17.070313-17.066406-17.070313zm-51.199219 51.199219v-34.132812h51.199219v34.132812zm0 0" fill="url(#h)"/></svg>