<?xml version="1.0" encoding="iso-8859-1"?>
<!-- Generator: Adobe Illustrator 22.1.0, SVG Export Plug-In . SVG Version: 6.00 Build 0)  -->
<svg xmlns="http://www.w3.org/2000/svg" xmlns:xlink="http://www.w3.org/1999/xlink" version="1.1" id="Layer_1_1_" x="0px" y="0px" viewBox="0 0 64 64" style="enable-background:new 0 0 64 64;" xml:space="preserve" width="512" height="512">
<linearGradient id="SVGID_1_" gradientUnits="userSpaceOnUse" x1="32" y1="63" x2="32" y2="1">
	<stop offset="0" style="stop-color:#9F2FFF"/>
	<stop offset="1" style="stop-color:#0BB1D3"/>
</linearGradient>
<path style="fill:url(#SVGID_1_);" d="M26,12c0,0.552,0.448,1,1,1c1.654,0,3,1.346,3,3c0,1.302-0.839,2.402-2,2.816V20h-2v-1.184  c-1.161-0.414-2-1.514-2-2.816h2c0,0.552,0.448,1,1,1s1-0.448,1-1s-0.448-1-1-1c-1.654,0-3-1.346-3-3c0-1.302,0.839-2.402,2-2.816V8  h2v1.184c1.161,0.414,2,1.514,2,2.816h-2c0-0.552-0.448-1-1-1S26,11.448,26,12z M27,7c3.859,0,7,3.141,7,7  c0,1.562-0.51,3.045-1.476,4.287l1.58,1.227C35.345,17.918,36,16.012,36,14c0-4.963-4.037-9-9-9c-2.012,0-3.918,0.655-5.514,1.896  l1.227,1.58C23.955,7.51,25.438,7,27,7z M27,23c2.012,0,3.918-0.655,5.514-1.896l-1.227-1.58C30.045,20.49,28.562,21,27,21  c-3.859,0-7-3.141-7-7c0-1.562,0.51-3.045,1.476-4.287l-1.58-1.227C18.655,10.082,18,11.988,18,14C18,18.963,22.037,23,27,23z   M45,31h6v18h2v2H11v-2h2v-4h6v4h2v-8h6v8h2V39h6v10h2V35h6v14h2V31z M39,49h2V37h-2V49z M31,49h2v-8h-2V49z M23,49h2v-6h-2V49z   M15,49h2v-2h-2V49z M47,33v16h2V33H47z M51,27h-2v2h2V27z M51,23h-2v2h2V23z M61,53h2v5c0,2.757-2.243,5-5,5H6  c-2.757,0-5-2.243-5-5v-5h2V20c0-2.757,2.243-5,5-5h6.051C14.025,14.669,14,14.338,14,14c0-7.168,5.832-13,13-13s13,5.832,13,13  c0,0.338-0.025,0.669-0.051,1H45v-2h-3.081L48,5.399L54.081,13H51v2h5c2.757,0,5,2.243,5,5V53z M51,17v2h4c1.103,0,2,0.897,2,2v32h2  V20c0-1.654-1.346-3-3-3H51z M46.081,11H47v18h-2v-8h-7.063C35.623,24.602,31.59,27,27,27s-8.623-2.398-10.937-6H9v32h46V21h-6V11  h0.919L48,8.601L46.081,11z M25,56c0,0.552,0.448,1,1,1h12c0.552,0,1-0.448,1-1v-1H25V56z M39.637,17  c-0.163,0.688-0.371,1.359-0.64,2H45v-2H39.637z M16,14c0,6.065,4.935,11,11,11s11-4.935,11-11S33.065,3,27,3S16,7.935,16,14z M5,53  h2V21c0-1.103,0.897-2,2-2h6.003c-0.268-0.641-0.476-1.312-0.64-2H8c-1.654,0-3,1.346-3,3V53z M61,55H41v1c0,1.654-1.346,3-3,3H26  c-1.654,0-3-1.346-3-3v-1H3v3c0,1.654,1.346,3,3,3h52c1.654,0,3-1.346,3-3V55z"/>
</svg>
