<?xml version="1.0" encoding="iso-8859-1"?>
<!-- Generator: Adobe Illustrator 22.1.0, SVG Export Plug-In . SVG Version: 6.00 Build 0)  -->
<svg xmlns="http://www.w3.org/2000/svg" xmlns:xlink="http://www.w3.org/1999/xlink" version="1.1" id="Layer_1_1_" x="0px" y="0px" viewBox="0 0 64 64" style="enable-background:new 0 0 64 64;" xml:space="preserve" width="512" height="512">
<linearGradient id="SVGID_1_" gradientUnits="userSpaceOnUse" x1="32" y1="62.5996" x2="32" y2="1.4004">
	<stop offset="0" style="stop-color:#9F2FFF"/>
	<stop offset="1" style="stop-color:#0BB1D3"/>
</linearGradient>
<path style="fill:url(#SVGID_1_);" d="M9,32c0-11.907,9.094-21.728,20.701-22.885l-2.408-2.408l1.414-1.414L33.414,10l-4.707,4.707  l-1.414-1.414l2.116-2.116C19.05,12.46,11,21.3,11,32c0,11.579,9.421,21,21,21s21-9.421,21-21h2c0,12.683-10.317,23-23,23  S9,44.683,9,32z M26.933,1.4l-1.961,0.391l0.391,1.962l1.961-0.391L26.933,1.4z M21.061,2.977l-1.848,0.766l0.766,1.848l1.848-0.766  L21.061,2.977z M15.608,5.669L13.946,6.78l1.111,1.663l1.662-1.111L15.608,5.669z M9.373,10.787l1.414,1.414l1.414-1.414  l-1.414-1.414L9.373,10.787z M35,19v1.071c3.388,0.486,6,3.408,6,6.929v1h-6v-1c0-0.552-0.448-1-1-1h-4c-0.552,0-1,0.448-1,1v1  c0,0.552,0.448,1,1,1h4c3.859,0,7,3.141,7,7v1c0,3.521-2.612,6.442-6,6.929V45c0,1.654-1.346,3-3,3s-3-1.346-3-3v-1.071  c-3.388-0.486-6-3.408-6-6.929v-1h6v1c0,0.552,0.448,1,1,1h4c0.552,0,1-0.448,1-1v-1c0-0.552-0.448-1-1-1h-4c-3.859,0-7-3.141-7-7  v-1c0-3.521,2.612-6.442,6-6.929V19c0-1.654,1.346-3,3-3S35,17.346,35,19z M34,22h-1v-3c0-0.552-0.448-1-1-1s-1,0.448-1,1v3h-1  c-2.757,0-5,2.243-5,5v1c0,2.757,2.243,5,5,5h4c1.654,0,3,1.346,3,3v1c0,1.654-1.346,3-3,3h-4c-1.304,0-2.416-0.836-2.829-2h-2.07  c0.465,2.279,2.484,4,4.899,4h1v3c0,0.552,0.448,1,1,1s1-0.448,1-1v-3h1c2.757,0,5-2.243,5-5v-1c0-2.757-2.243-5-5-5h-4  c-1.654,0-3-1.346-3-3v-1c0-1.654,1.346-3,3-3h4c1.304,0,2.416,0.836,2.829,2h2.07C38.435,23.721,36.415,22,34,22z M1,32  c0,7.64,2.804,14.979,7.895,20.667l1.49-1.334C5.623,46.013,3,39.147,3,32c0-6.683,2.328-13.205,6.556-18.366l-1.547-1.268  C3.489,17.884,1,24.856,1,32z M37.067,62.6l1.961-0.391l-0.391-1.961l-1.961,0.391L37.067,62.6z M42.939,61.023l1.848-0.766  l-0.766-1.848l-1.848,0.766L42.939,61.023z M48.392,58.332l1.662-1.111l-1.111-1.663l-1.662,1.111L48.392,58.332z M54.627,53.214  L53.213,51.8l-1.414,1.414l1.414,1.414L54.627,53.214z M53.615,12.667C58.377,17.987,61,24.853,61,32  c0,6.684-2.328,13.206-6.556,18.367l1.547,1.268C60.511,46.117,63,39.145,63,32c0-7.64-2.804-14.979-7.895-20.667L53.615,12.667z"/>
</svg>
