<svg id="Capa_1" enable-background="new 0 0 512 512" height="512" viewBox="0 0 512 512" width="512" xmlns="http://www.w3.org/2000/svg"><g><path d="m166 0c-74.439 0-135 61.009-135 136 0 74.439 60.561 135 135 135 15.489 0 30.612-2.593 45.044-7.706 14.07 4.984 29.2 7.706 44.956 7.706 15.489 0 30.612-2.593 45.044-7.706 14.07 4.984 29.2 7.706 44.956 7.706 74.439 0 135-60.561 135-135 0-74.991-60.561-136-135-136-15.727 0-30.829 2.732-44.876 7.735-14.457-5.131-29.606-7.735-45.124-7.735-15.727 0-30.829 2.732-44.876 7.735-14.457-5.131-29.606-7.735-45.124-7.735zm0 241c-57.897 0-105-47.103-105-105 0-58.448 47.103-106 105-106 1.793 0 3.579.047 5.358.136-30.689 24.951-50.358 63.134-50.358 105.864 0 42.298 19.559 80.108 50.102 104.879-1.695.08-3.395.121-5.102.121zm165-209.914v32.494c-17.459 6.192-30 22.865-30 42.42 0 24.813 20.187 45 45 45 8.271 0 15 6.729 15 15s-6.729 15-15 15-15-6.729-15-15h-30c0 19.555 12.541 36.228 30 42.42v31.504c-50.817-7.301-90-51.119-90-103.924 0-53.307 39.183-97.543 90-104.914zm120 104.914c0 52.805-39.183 96.623-90 103.924v-31.504c17.459-6.192 30-22.865 30-42.42 0-24.813-20.187-45-45-45-8.271 0-15-6.729-15-15s6.729-15 15-15 15 6.729 15 15h30c0-19.555-12.541-36.228-30-42.42v-32.494c50.817 7.371 90 51.607 90 104.914zm-189.642-105.864c-30.689 24.951-50.358 63.134-50.358 105.864 0 42.298 19.559 80.108 50.102 104.879-1.694.08-3.395.121-5.102.121-57.897 0-105-47.103-105-105 0-58.448 47.103-106 105-106 1.793 0 3.579.047 5.358.136z"/></g><path d="m485.227 361.831c-16.765-10.361-37.298-11.284-54.88-2.492l-99.043 49.125c-.534-8.59-2.605-17.092-6.228-25.175-7.996-17.844-22.641-31.767-41.237-39.206l-89.486-35.794c-12.088-4.836-24.819-7.288-37.84-7.288-15.709 0-31.438 3.707-45.494 10.721l-21.019 10.231v-20.953h-90v180h90v-34.764l132.179 53.391c20.526 8.21 42.141 12.373 64.248 12.373 27.374 0 54.475-6.317 78.451-18.307l147.122-74.631v-9.21c0-19.709-10.009-37.66-26.773-48.021zm-425.227 89.169h-30v-120h30zm291.383 15.9c-19.473 9.737-42.541 15.1-64.956 15.1-18.272 0-36.14-3.441-53.059-10.208l-143.368-57.911v-58.561l34.362-16.731c9.93-4.965 21.047-7.589 32.149-7.589 9.187 0 18.169 1.73 26.697 5.142l89.486 35.795c18.429 7.371 29.306 24.493 28.686 42.512l-82.025-31.538-10.766 28.002 104.378 40.132 130.751-64.852c8.384-4.192 17.763-3.77 25.735 1.157 5.436 3.359 9.29 8.24 11.193 13.976z"/></svg>