<?xml version="1.0"?>
<svg xmlns="http://www.w3.org/2000/svg" viewBox="0 0 64 64" width="512" height="512"><g id="Outline"><g><circle cx="28" cy="26" r="1"/><circle cx="36" cy="26" r="1"/><path d="M4,32A27.991,27.991,0,0,1,50.38,10.888,1,1,0,1,0,51.694,9.38,30,30,0,0,0,5.044,45.174a1,1,0,0,0,1.8-.879A27.734,27.734,0,0,1,4,32Z"/><path d="M54.62,12.306a1,1,0,0,0-1.508,1.314A27.976,27.976,0,0,1,45,56.788V49a1,1,0,0,0-2,0v8.746a27.928,27.928,0,0,1-22-.007V49a1,1,0,0,0-2,0v7.8a27.974,27.974,0,0,1-5-3.364V47a7.009,7.009,0,0,1,7-7h5.09a6,6,0,0,0,11.827,0H43a7.009,7.009,0,0,1,7,7v.9a1,1,0,0,0,2,0V47a9.01,9.01,0,0,0-9-9H37a1,1,0,0,0-1,1,4,4,0,0,1-8,0V37.05a8.969,8.969,0,0,0,12.976-7.583A9.014,9.014,0,0,0,45,22V21a9.01,9.01,0,0,0-9-9H20a1,1,0,0,0-1,1v9a9.014,9.014,0,0,0,4.024,7.467A8.965,8.965,0,0,0,26,35.689V38H21a9.01,9.01,0,0,0-9,9v4.594A28.209,28.209,0,0,1,8.772,47.64a1,1,0,1,0-1.658,1.119A30,30,0,1,0,54.62,12.306ZM25,29V23a1,1,0,0,0-2,0v3.882A7.011,7.011,0,0,1,21,22V14H36a7.009,7.009,0,0,1,7,7v1a7.011,7.011,0,0,1-2,4.882V25.076A7.085,7.085,0,0,0,33.924,18h-.489a7.122,7.122,0,0,0-3.165.747,5.1,5.1,0,0,1-4.54,0l-1.283-.642a1,1,0,1,0-.894,1.79l1.283.641a7.113,7.113,0,0,0,6.328,0A5.11,5.11,0,0,1,33.435,20h.489A5.082,5.082,0,0,1,39,25.076V29a7,7,0,0,1-14,0Z"/><path d="M9.5,43.906a1,1,0,0,1-.9-.563,25.985,25.985,0,0,1,6.758-31.3,1,1,0,1,1,1.282,1.535A23.99,23.99,0,0,0,10.4,42.47a1,1,0,0,1-.9,1.436Z"/><path d="M54.5,43.906a1,1,0,0,1-.9-1.436A24.008,24.008,0,0,0,22.584,9.92,1,1,0,1,1,21.8,8.08,26.007,26.007,0,0,1,55.4,43.343,1,1,0,0,1,54.5,43.906Z"/></g></g></svg>
