<?xml version="1.0" encoding="iso-8859-1"?>
<!-- Generator: Adobe Illustrator 22.1.0, SVG Export Plug-In . SVG Version: 6.00 Build 0)  -->
<svg xmlns="http://www.w3.org/2000/svg" xmlns:xlink="http://www.w3.org/1999/xlink" version="1.1" id="Layer_1_1_" x="0px" y="0px" viewBox="0 0 64 64" style="enable-background:new 0 0 64 64;" xml:space="preserve" width="512" height="512">
<linearGradient id="SVGID_1_" gradientUnits="userSpaceOnUse" x1="31.89" y1="0.9983" x2="31.89" y2="63" gradientTransform="matrix(1 0 0 -1 0 64)">
	<stop offset="0" style="stop-color:#9F2FFF"/>
	<stop offset="1" style="stop-color:#0BB1D3"/>
</linearGradient>
<path style="fill:url(#SVGID_1_);" d="M45.73,1.025c-3.088-0.203-6.011,0.849-8.252,2.95c-0.342,0.321-0.653,0.668-0.949,1.027H11  v21.474c-1.854,1.97-3,4.614-3,7.526v5c0,1.947,1.399,3.568,3.244,3.924c0.313,1.261,0.923,2.404,1.756,3.35v1.982l-6.985,2.096  c-1.775,0.532-3.104,1.992-3.467,3.809L0.78,63.002h36.439l-1.768-8.84c-0.363-1.817-1.691-3.276-3.467-3.809L25,48.258v-1.982  c0.833-0.946,1.443-2.089,1.756-3.35c1.151-0.222,2.115-0.943,2.687-1.924H63v-36h-9.63C51.504,2.736,48.799,1.224,45.73,1.025z   M35.221,7.002c-0.785,1.537-1.221,3.249-1.221,5v4c0,1.713,1.182,4.181,3.044,4.835c0.176,1.589,0.88,2.501,1.956,3.582v0.839  l-6.945,2.083c-1.276,0.383-2.306,1.246-2.926,2.371c-1.675-3.94-5.585-6.71-10.129-6.71c-2.214,0-4.273,0.663-6,1.792V7.002H35.221  z M19,25.002c4.963,0,9,4.038,9,9v1.556c-0.31-0.181-0.644-0.322-1-0.414v-1.142h-2v0.374c-1.87,0.914-3.923,1.462-6,1.595v-2.355  l-6,2v-1.614h-2v1.142c-0.356,0.093-0.69,0.233-1,0.414v-1.556C10,29.04,14.037,25.002,19,25.002z M10,39.002  c0-0.737,0.405-1.375,1-1.722v3.443C10.405,40.377,10,39.739,10,39.002z M23,48.436l-4,2.4l-4-2.4V47.92  c1.178,0.684,2.542,1.082,4,1.082s2.822-0.398,4-1.082V48.436z M17.868,56.002h2.265l0.714,5h-3.693L17.868,56.002z M20.181,54.002  H17.82l-0.35-1.753L19,53.168l1.531-0.919L20.181,54.002z M4.509,54.555c0.218-1.09,1.016-1.966,2.08-2.285l7.276-2.183l1.287,0.772  l0.834,4.169l-0.854,5.974h-3.979l0.837-5.858l-1.98-0.283l-0.878,6.141H3.219L4.509,54.555z M31.411,52.27  c1.064,0.319,1.862,1.195,2.08,2.285l1.289,6.447h-5.913L27.99,54.86l-1.98,0.283l0.837,5.859h-3.979l-0.853-5.974l0.834-4.169  l1.287-0.772L31.411,52.27z M19,47.002c-3.309,0-6-2.691-6-6v-3.279l4-1.334v1.613h1c2.396,0,4.792-0.492,7-1.425v4.425  C25,44.311,22.309,47.002,19,47.002z M27,40.724v-3.443c0.595,0.347,1,0.985,1,1.722S27.595,40.377,27,40.724z M30,34.589  l0.545-2.997c0.204-1.116,1.002-2.011,2.084-2.335L41,26.746v-3.165l-0.301-0.294C39.437,22.051,39,21.545,39,20.002v-1h-1  c-0.966,0-2-1.761-2-3v-4c0-2.515,1.011-4.847,2.847-6.567c1.834-1.719,4.23-2.58,6.755-2.413C50.311,3.327,54,7.422,54,12.345  v3.657c0,1.239-1.034,3-2,3h-1v1c0,1.543-0.437,2.049-1.699,3.286L49,23.582v3.165l8.364,2.509c1.086,0.326,1.887,1.222,2.091,2.337  l1.347,7.41H30V34.589z M61,7.002v22.941c-0.6-1.241-1.694-2.193-3.061-2.604L51,25.258v-0.839c1.076-1.081,1.78-1.992,1.956-3.582  C54.818,20.183,56,17.715,56,16.002v-3.658c0-1.926-0.474-3.745-1.303-5.342H61z M44,12.002c0,0.551,0.448,1,1,1  c1.654,0,3,1.346,3,3c0,1.302-0.839,2.402-2,2.816v1.184h-2v-1.184c-1.161-0.414-2-1.514-2-2.816h2c0,0.551,0.448,1,1,1s1-0.449,1-1  c0-0.551-0.448-1-1-1c-1.654,0-3-1.346-3-3c0-1.302,0.839-2.402,2-2.816V8.002h2v1.184c1.161,0.414,2,1.514,2,2.816h-2  c0-0.551-0.448-1-1-1S44,11.451,44,12.002z M17,12.002h-2v-2h2V12.002z M32,12.002H19v-2h13V12.002z M32,16.002H15v-2h17V16.002z   M32,20.002H15v-2h17V20.002z"/>
</svg>
