<?xml version="1.0" encoding="iso-8859-1"?>
<!-- Generator: Adobe Illustrator 22.1.0, SVG Export Plug-In . SVG Version: 6.00 Build 0)  -->
<svg xmlns="http://www.w3.org/2000/svg" xmlns:xlink="http://www.w3.org/1999/xlink" version="1.1" id="Layer_1_1_" x="0px" y="0px" viewBox="0 0 64 64" style="enable-background:new 0 0 64 64;" xml:space="preserve" width="512" height="512">
<linearGradient id="SVGID_1_" gradientUnits="userSpaceOnUse" x1="32" y1="62.9561" x2="32" y2="1">
	<stop offset="0" style="stop-color:#9F2FFF"/>
	<stop offset="1" style="stop-color:#0BB1D3"/>
</linearGradient>
<path style="fill:url(#SVGID_1_);" d="M40,9H24v6h16V9z M38,13H26v-2h12V13z M31,20H20v-2h11V20z M33,18h11v2H33V18z M31,28H20v-2  h11V28z M42,26h2v2h-2V26z M33,26h7v2h-7V26z M44,24H20v-2h24V24z M24.005,49.837L20.377,61.93l5.426-2.713l3.739,3.739l2.244-8.978  C31.858,53.982,31.927,54,32,54s0.142-0.018,0.214-0.022l2.244,8.978l3.739-3.739l5.426,2.713l-3.628-12.093  c0.579-0.158,1.103-0.447,1.551-0.837H62V1H2v48h20.454C22.902,49.39,23.425,49.679,24.005,49.837z M8,39.101  C9.956,39.5,11.5,41.044,11.899,43H8V39.101z M13.92,43c-0.441-3.059-2.861-5.48-5.92-5.92V12.92c3.059-0.441,5.48-2.861,5.92-5.92  h36.16c0.441,3.059,2.861,5.48,5.92,5.92v24.16c-3.059,0.441-5.48,2.861-5.92,5.92h-6.222C43.942,42.677,44,42.345,44,42  c0-1.108-0.452-2.138-1.239-2.883c0.309-1.039,0.186-2.156-0.369-3.117c-0.554-0.96-1.46-1.626-2.514-1.878  c-0.252-1.054-0.918-1.96-1.878-2.515c-0.96-0.554-2.077-0.678-3.117-0.369C34.138,30.452,33.108,30,32,30s-2.138,0.452-2.883,1.239  c-1.039-0.308-2.156-0.186-3.117,0.369c-0.96,0.554-1.626,1.46-1.878,2.514c-1.054,0.252-1.96,0.918-2.515,1.878  c-0.554,0.96-0.678,2.078-0.369,3.117C20.452,39.862,20,40.892,20,42c0,0.345,0.058,0.677,0.142,1H13.92z M8,10.899V7h3.899  C11.5,8.956,9.956,10.5,8,10.899z M56,10.899C54.044,10.5,52.5,8.956,52.101,7H56V10.899z M56,39.101V43h-3.899  C52.5,41.044,54.044,39.5,56,39.101z M40.545,39.19c-0.393-1.192-1.031-2.271-1.851-3.186l0.275,0.006  c0.711,0.015,1.344,0.385,1.692,0.989c0.349,0.604,0.353,1.337,0.011,1.96L40.545,39.19z M32,49c-3.86,0-7-3.14-7-7s3.14-7,7-7  s7,3.14,7,7S35.86,49,32,49z M37.995,48.693l-0.006,0.275c-0.015,0.711-0.385,1.344-0.989,1.692s-1.338,0.354-1.96,0.011  l-0.23-0.126C36.002,50.151,37.081,49.513,37.995,48.693z M29.19,50.545l-0.23,0.126c-0.624,0.342-1.357,0.337-1.96-0.01  c-0.604-0.349-0.974-0.982-0.989-1.693l-0.006-0.275C26.919,49.513,27.998,50.151,29.19,50.545z M23.455,39.19l-0.126-0.23  c-0.342-0.623-0.338-1.356,0.01-1.96c0.349-0.604,0.982-0.974,1.693-0.989l0.275-0.006C24.487,36.919,23.849,37.998,23.455,39.19z   M26.005,35.307l0.006-0.275c0.015-0.711,0.385-1.344,0.989-1.692c0.604-0.349,1.337-0.354,1.96-0.011l0.23,0.126  C27.998,33.849,26.919,34.487,26.005,35.307z M30.165,33.189l0.132-0.218C30.666,32.363,31.302,32,32,32s1.334,0.363,1.703,0.971  l0.132,0.218C33.243,33.066,32.629,33,32,33S30.757,33.066,30.165,33.189z M34.81,33.455l0.23-0.126  c0.622-0.343,1.356-0.338,1.96,0.01c0.604,0.349,0.974,0.982,0.989,1.693l0.006,0.275C37.081,34.487,36.002,33.849,34.81,33.455z   M22,42c0-0.698,0.363-1.334,0.971-1.703l0.218-0.132C23.066,40.757,23,41.371,23,42s0.066,1.243,0.189,1.835l-0.218-0.132  C22.363,43.334,22,42.698,22,42z M23.34,47c-0.349-0.604-0.353-1.337-0.011-1.96l0.126-0.23c0.393,1.192,1.031,2.271,1.851,3.186  l-0.275-0.006C24.321,47.974,23.688,47.604,23.34,47z M28.458,59.044l-2.261-2.261l-2.574,1.287l1.823-6.078  c0.174,0.145,0.353,0.284,0.554,0.4c0.96,0.553,2.076,0.677,3.117,0.369c0.227,0.239,0.486,0.436,0.76,0.61L28.458,59.044z   M30.297,51.029l-0.132-0.218C30.757,50.934,31.371,51,32,51s1.243-0.066,1.835-0.189l-0.132,0.218C33.334,51.637,32.698,52,32,52  S30.666,51.637,30.297,51.029z M37.803,56.783l-2.261,2.261l-1.418-5.673c0.273-0.174,0.533-0.37,0.76-0.61  c1.039,0.308,2.156,0.186,3.117-0.369c0.2-0.116,0.38-0.255,0.554-0.399l1.823,6.078L37.803,56.783z M40.661,47  c-0.349,0.604-0.982,0.974-1.693,0.989l-0.275,0.006c0.82-0.915,1.458-1.993,1.851-3.186l0.126,0.23  C41.013,45.663,41.009,46.396,40.661,47z M40.811,43.835C40.934,43.243,41,42.629,41,42s-0.066-1.243-0.189-1.835l0.218,0.132  C41.637,40.666,42,41.302,42,42s-0.363,1.334-0.971,1.703L40.811,43.835z M4,3h56v44H42.784c0.17-0.656,0.175-1.34,0-2H58V5H6v40  h15.216c-0.175,0.66-0.17,1.344,0,2H4V3z M31,40c0,0.551,0.449,1,1,1c1.654,0,3,1.346,3,3c0,1.302-0.839,2.402-2,2.816V48h-2v-1.184  c-1.161-0.414-2-1.514-2-2.816h2c0,0.551,0.449,1,1,1s1-0.449,1-1s-0.449-1-1-1c-1.654,0-3-1.346-3-3c0-1.302,0.839-2.402,2-2.816  V36h2v1.184c1.161,0.414,2,1.514,2,2.816h-2c0-0.551-0.449-1-1-1S31,39.449,31,40z"/>
</svg>
