<?xml version="1.0" encoding="iso-8859-1"?>
<!-- Generator: Adobe Illustrator 22.1.0, SVG Export Plug-In . SVG Version: 6.00 Build 0)  -->
<svg xmlns="http://www.w3.org/2000/svg" xmlns:xlink="http://www.w3.org/1999/xlink" version="1.1" id="Layer_1_1_" x="0px" y="0px" viewBox="0 0 64 64" style="enable-background:new 0 0 64 64;" xml:space="preserve" width="512" height="512">
<linearGradient id="SVGID_1_" gradientUnits="userSpaceOnUse" x1="32" y1="63" x2="32" y2="1">
	<stop offset="0" style="stop-color:#9F2FFF"/>
	<stop offset="1" style="stop-color:#0BB1D3"/>
</linearGradient>
<path style="fill:url(#SVGID_1_);" d="M51,40c0-0.552-0.449-1-1-1c-1.654,0-3-1.346-3-3c0-1.302,0.839-2.402,2-2.816V32h2v1.184  c1.161,0.414,2,1.514,2,2.816h-2c0-0.552-0.449-1-1-1s-1,0.448-1,1s0.449,1,1,1c1.654,0,3,1.346,3,3c0,1.302-0.839,2.402-2,2.816V44  h-2v-1.184c-1.161-0.414-2-1.514-2-2.816h2c0,0.552,0.449,1,1,1S51,40.552,51,40z M50,29c-2.011,0-3.917,0.655-5.514,1.896  l1.228,1.58C46.956,31.51,48.438,31,50,31c3.86,0,7,3.141,7,7c0,1.562-0.51,3.045-1.475,4.287l1.579,1.227  C58.344,41.918,59,40.012,59,38C59,33.037,54.962,29,50,29z M50,45c-3.86,0-7-3.141-7-7c0-1.562,0.51-3.045,1.476-4.286  l-1.579-1.229C41.656,34.081,41,35.988,41,38c0,4.963,4.038,9,9,9c2.011,0,3.917-0.655,5.514-1.896l-1.227-1.58  C53.045,44.49,51.562,45,50,45z M63,38c0,7.168-5.832,13-13,13c-3.491,0-6.658-1.39-8.996-3.637  c0.093,0.399,0.171,0.812,0.276,1.199l1.282,4.702C44.813,54.364,47.331,55,50,55v2c-2.478,0-4.84-0.491-7.012-1.357  C42.989,55.704,43,55.765,43,55.827C43,59.782,39.782,63,35.827,63H8.173C4.218,63,1,59.782,1,55.827  c0-0.638,0.085-1.273,0.253-1.889l1.467-5.377C3.569,45.445,4,42.229,4,39c0-7.275,4.347-13.542,10.574-16.377  C13.641,22.113,13,21.135,13,20c0-0.722,0.266-1.375,0.692-1.894L7,11.414V7h5.414l1.149,1.148L14.279,6H20V1h2.5l2.732,3.644  L28,2.798l4.289,2.859l-0.948,1.895L35,9.382v3.032l-5.201,5.201C30.524,18.163,31,19.023,31,20c0,1.131-0.636,2.105-1.562,2.616  c4.029,1.834,7.299,5.123,9.083,9.297C40.708,27.805,45.031,25,50,25C57.168,25,63,30.832,63,38z M9,10.586l6.468,6.468  C15.641,17.023,15.818,17,16,17h0.847l-0.837-5.858l1.979-0.283L18.867,17h4.25l0.891-7.124l1.984,0.248L25.133,17h2.453L33,11.586  v-0.968l-2.553-1.276l-1.553,3.106l-1.789-0.895l2.605-5.21L28,5.202l-3.232,2.154L22,3.667V13h-2V8h-4.279l-1.284,3.852L11.586,9H9  V10.586z M28,21c0.551,0,1-0.448,1-1s-0.449-1-1-1H16c-0.551,0-1,0.448-1,1s0.449,1,1,1H28z M35.707,40.293l-1.414,1.414  l-1.067-1.067c0.718,4.574,3.256,8.541,6.859,11.141l-0.735-2.694c-0.469-1.719-0.823-3.552-1.054-5.45  c-0.017-0.034-0.027-0.07-0.044-0.105c-0.169-0.357-0.321-0.722-0.457-1.096c-0.032-0.087-0.065-0.173-0.095-0.26  c-0.116-0.341-0.215-0.689-0.303-1.042c-0.029-0.115-0.063-0.229-0.089-0.344c-0.074-0.336-0.128-0.678-0.175-1.023  c-0.017-0.123-0.043-0.244-0.056-0.367C37.029,38.94,37,38.473,37,38c0-0.522,0.04-1.034,0.1-1.541  c0.009-0.072,0.023-0.145,0.033-0.217c0.064-0.471,0.154-0.933,0.267-1.387c0.006-0.026,0.008-0.051,0.015-0.077  C35.519,27.83,29.216,23,22,23c-8.822,0-16,7.178-16,16c0,3.406-0.455,6.8-1.351,10.087l-1.467,5.378  C3.062,54.909,3,55.367,3,55.827C3,58.68,5.321,61,8.173,61h27.653C38.679,61,41,58.68,41,55.827c0-0.399-0.055-0.795-0.146-1.183  c-5.238-2.89-8.964-8.181-9.705-14.378l-1.441,1.441l-1.414-1.414L32,36.586L35.707,40.293z M61,38c0-6.065-4.935-11-11-11  c-4.945,0-9.137,3.281-10.517,7.781l0.002,0.009l-0.065,0.233c-0.003,0.012-0.006,0.024-0.009,0.036  c-0.125,0.452-0.216,0.905-0.284,1.358c-0.009,0.063-0.021,0.125-0.029,0.189C39.036,37.073,39,37.539,39,38  c0,0.406,0.026,0.808,0.07,1.207c0.012,0.106,0.033,0.208,0.048,0.313c0.042,0.3,0.09,0.598,0.158,0.893  c0.022,0.096,0.049,0.19,0.074,0.286c0.08,0.313,0.171,0.625,0.28,0.932c0.022,0.064,0.046,0.126,0.07,0.19  c0.131,0.348,0.277,0.692,0.444,1.03C41.939,46.487,45.677,49,50,49C56.065,49,61,44.065,61,38z M20.152,27.142  C20.762,27.048,21.383,27,22,27v-2c-0.719,0-1.443,0.056-2.152,0.165L20.152,27.142z M8,39c0,3.582-0.478,7.153-1.421,10.614  l1.93,0.525C9.498,46.508,10,42.76,10,39c0-5.22,3.339-9.809,8.308-11.419l-0.616-1.902C11.895,27.557,8,32.91,8,39z M52,57h2v-2h-2  V57z M56,57h2v-2h-2V57z M61,13h2v-2h-2V13z M59,11h-2v2h2V11z M55,11H39v2h16V11z M61,17h2v-2h-2V17z M57,17h2v-2h-2V17z M55,15H39  v2h16V15z M61,21h2v-2h-2V21z M57,21h2v-2h-2V21z M39,21h16v-2H39V21z"/>
</svg>
