<svg id="Capa_1" enable-background="new 0 0 512 512" height="512" viewBox="0 0 512 512" width="512" xmlns="http://www.w3.org/2000/svg"><g><g><circle cx="318.356" cy="174.244" fill="#ffe07d" r="44.357"/></g><g><circle cx="262.121" cy="129.887" fill="#ffe07d" r="44.357"/></g><path d="m335.358 133.269c3.136 6.083 4.918 12.978 4.918 20.293 0 24.498-19.859 44.357-44.357 44.357-6.024 0-11.766-1.206-17.003-3.382 7.367 14.288 22.256 24.064 39.439 24.064 24.498 0 44.357-19.859 44.357-44.357.001-18.473-11.295-34.303-27.354-40.975z" fill="#ffd064"/><path d="m279.124 88.912c3.136 6.083 4.918 12.978 4.918 20.293 0 24.498-19.859 44.357-44.357 44.357-6.024 0-11.766-1.206-17.003-3.382 7.367 14.288 22.256 24.064 39.439 24.064 24.498 0 44.357-19.859 44.357-44.357 0-18.473-11.296-34.304-27.354-40.975z" fill="#ffd064"/><g><g><path d="m256 512c-78.938 0-152.265-35.6-201.178-97.671l24.037-18.942c41.992 53.288 104.411 84.42 171.917 85.95 125.599 2.845 228.78-96.388 230.596-222.007.324-22.421-2.625-44.569-8.758-65.858-.764-2.653.749-5.426 3.384-6.249l19.479-6.083c2.737-.855 5.634.717 6.432 3.471 6.698 23.109 10.091 47.098 10.091 71.389 0 68.38-26.629 132.667-74.98 181.019-48.353 48.352-112.64 74.981-181.02 74.981z" fill="#b3e59f"/></g></g><g><g><path d="m15.922 328.908c-2.743.832-5.628-.761-6.403-3.52-6.318-22.491-9.519-45.807-9.519-69.388 0-68.38 26.629-132.667 74.98-181.019 48.353-48.352 112.64-74.981 181.02-74.981 78.92 0 152.236 35.586 201.15 97.634l-24.034 18.946c-43.073-54.639-107.63-85.976-177.116-85.976-124.284 0-225.396 101.112-225.396 225.396 0 20.658 2.784 41.073 8.281 60.761.743 2.66-.791 5.422-3.434 6.223z" fill="#b3e59f"/></g></g><g><g><path d="m501.909 184.611c-.798-2.754-3.695-4.326-6.432-3.471l-10 3.123c6.765 23.216 10.192 47.325 10.192 71.737 0 68.38-26.629 132.667-74.98 181.019-46.438 46.439-107.578 72.824-172.922 74.841 2.738.086 5.481.14 8.233.14 68.38 0 132.667-26.629 181.019-74.981s74.981-112.639 74.981-181.019c0-24.291-3.393-48.28-10.091-71.389z" fill="#95d6a4"/></g></g><g><g><path d="m256 0c-16.62 0-32.995 1.586-48.962 4.662 9.424-1.04 18.958-1.586 28.578-1.586 78.92 0 152.236 35.586 201.15 97.634l-10.161 8.01c2.216 2.569 4.397 5.178 6.512 7.86l24.034-18.946c-48.915-62.048-122.231-97.634-201.151-97.634z" fill="#95d6a4"/></g></g><g><g><path d="m463.088 129.101h-81.951c-2.817 0-5.101-2.284-5.101-5.101v-20.403c0-2.817 2.284-5.101 5.101-5.101h57.467v-57.466c0-2.817 2.284-5.101 5.101-5.101h20.403c2.817 0 5.101 2.284 5.101 5.101v81.951c-.001 3.38-2.741 6.12-6.121 6.12z" fill="#b3e59f"/></g></g><g><path d="m464.108 35.929h-10.064v71.887c0 3.38-2.74 6.121-6.121 6.121h-71.887v10.064c0 2.817 2.284 5.101 5.101 5.101h81.951c3.38 0 6.121-2.74 6.121-6.121v-81.951c-.001-2.817-2.284-5.101-5.101-5.101z" fill="#95d6a4"/></g><g><g><path d="m68.295 476.043h-20.403c-2.817 0-5.101-2.284-5.101-5.101v-81.951c0-3.38 2.74-6.121 6.121-6.121h81.951c2.817 0 5.101 2.284 5.101 5.101v20.403c0 2.817-2.284 5.101-5.101 5.101h-57.467v57.467c0 2.818-2.284 5.101-5.101 5.101z" fill="#b3e59f"/></g></g><g><path d="m130.863 382.871h-9.437v10.966c0 2.817-2.284 5.101-5.101 5.101h-51.346c-3.38 0-6.121 2.74-6.121 6.121v51.346c0 2.817-2.284 5.101-5.101 5.101h-10.965v9.437c0 2.817 2.284 5.101 5.101 5.101h20.403c2.817 0 5.101-2.284 5.101-5.101v-57.467h57.467c2.817 0 5.101-2.284 5.101-5.101v-20.403c-.001-2.817-2.285-5.101-5.102-5.101z" fill="#95d6a4"/></g><g><path d="m375.878 356.609h-237.715c-9.941 0-18-8.059-18-18v-8.063l3-7.624-3-7.786v-110.258l3.068-7.705-3.068-7.705v-8.063c0-9.941 8.059-18 18-18h237.715c9.941 0 18 8.059 18 18v157.203c0 9.942-8.059 18.001-18 18.001z" fill="#365e7d"/></g><g><path d="m375.878 163.406h-15.687v152.426c0 3.916-3.175 7.091-7.091 7.091h-229.937l-3 7.624v8.063c0 9.941 8.059 18 18 18h237.715c9.941 0 18-8.059 18-18v-157.204c0-9.942-8.059-18-18-18z" fill="#2b4d66"/></g><g><path d="m179.723 289.336h-68.837c-5.523 0-10-4.477-10-10v-38.658c0-5.523 4.477-10 10-10h68.837c5.523 0 10 4.477 10 10v38.658c0 5.523-4.477 10-10 10z" fill="#f4fbff"/></g><path d="m179.723 230.678h-6.978v31.68c0 5.523-4.477 10-10 10h-61.859v6.978c0 5.523 4.477 10 10 10h68.837c5.523 0 10-4.477 10-10v-38.658c0-5.523-4.477-10-10-10z" fill="#e4f6ff"/><g><circle cx="139.184" cy="65.161" fill="#ffe07d" r="63.751"/></g><path d="m170.505 9.641c5.231 9.253 8.231 19.934 8.231 31.321 0 35.209-28.542 63.751-63.751 63.751-11.387 0-22.068-3-31.321-8.231 10.943 19.356 31.699 32.43 55.52 32.43 35.209 0 63.751-28.542 63.751-63.751 0-23.822-13.075-44.577-32.43-55.52z" fill="#ffd064"/><path d="m146.804 59.599c-5.347-1.89-11.245-4.161-14.449-6.674-.488-.383-.824-1.669-.543-3.159.145-.773.819-3.355 3.361-4.121 5.611-1.689 9.18 1.116 9.569 1.442l-.124-.111 2.13.889c7.571 3.161 14.034-6.331 8.318-12.217-1.878-1.732-5.225-3.83-9.569-5.013v-1.167c0-4.255-3.45-7.705-7.705-7.705s-7.705 3.45-7.705 7.705v1.641c-6.893 2.338-12.009 8.327-13.418 15.802-1.346 7.143 1.02 14.093 6.176 18.138 4.945 3.878 11.969 6.655 18.823 9.078 4.519 1.598 4.977 4.856 4.565 7.308-.58 3.453-3.486 7.184-8.493 7.217-5.608.04-7.077-.193-11.244-2.919-3.818-2.497-9.029-1.171-11.128 3.036-1.776 3.56-.353 7.895 2.99 10.053 4.429 2.859 7.853 4.208 11.729 4.807v1.303c0 4.255 3.45 7.705 7.705 7.705s7.705-3.45 7.705-7.705v-2.132c8.915-3.011 14.613-10.96 15.933-18.809 1.824-10.853-4.054-20.655-14.626-24.392z" fill="#ffc250"/><g><path d="m151.447 268.732h-12.263c-4.255 0-7.705-3.45-7.705-7.705s3.45-7.705 7.705-7.705h12.263c4.255 0 7.705 3.45 7.705 7.705s-3.45 7.705-7.705 7.705z" fill="#2b4d66"/></g><g><path d="m315.359 204.878h-26.352c-4.255 0-7.705-3.45-7.705-7.705s3.45-7.705 7.705-7.705h26.352c4.255 0 7.705 3.45 7.705 7.705s-3.45 7.705-7.705 7.705zm-60.234 0h-26.352c-4.255 0-7.705-3.45-7.705-7.705s3.45-7.705 7.705-7.705h26.352c4.255 0 7.705 3.45 7.705 7.705s-3.45 7.705-7.705 7.705zm-60.234 0h-26.351c-4.255 0-7.705-3.45-7.705-7.705s3.45-7.705 7.705-7.705h26.352c4.255 0 7.705 3.45 7.705 7.705-.001 4.255-3.45 7.705-7.706 7.705z" fill="#f4fbff"/></g><g><path d="m362.713 219.609c-4.255 0-7.705-3.45-7.705-7.705v-7.027h-7.027c-4.255 0-7.705-3.45-7.705-7.705s3.45-7.705 7.705-7.705h9.631c7.061 0 12.806 5.744 12.806 12.806v9.631c0 4.256-3.45 7.705-7.705 7.705zm-5.101-14.731h.01z" fill="#f4fbff"/></g><g><path d="m362.713 281.369c-4.255 0-7.705-3.45-7.705-7.705v-27.126c0-4.255 3.45-7.705 7.705-7.705s7.705 3.45 7.705 7.705v27.126c0 4.256-3.45 7.705-7.705 7.705z" fill="#f4fbff"/></g><g><path d="m357.612 330.546h-9.631c-4.255 0-7.705-3.45-7.705-7.705s3.45-7.705 7.705-7.705h7.027v-7.027c0-4.255 3.45-7.705 7.705-7.705s7.705 3.45 7.705 7.705v9.631c0 7.061-5.745 12.806-12.806 12.806z" fill="#f4fbff"/></g><g><path d="m314.336 330.546h-26.352c-4.255 0-7.705-3.45-7.705-7.705s3.45-7.705 7.705-7.705h26.352c4.255 0 7.705 3.45 7.705 7.705s-3.45 7.705-7.705 7.705zm-60.233 0h-26.352c-4.255 0-7.705-3.45-7.705-7.705s3.45-7.705 7.705-7.705h26.352c4.255 0 7.705 3.45 7.705 7.705s-3.45 7.705-7.705 7.705zm-60.234 0h-26.352c-4.255 0-7.705-3.45-7.705-7.705s3.45-7.705 7.705-7.705h26.352c4.255 0 7.705 3.45 7.705 7.705s-3.45 7.705-7.705 7.705z" fill="#f4fbff"/></g><path d="m134.894 330.546c4.255 0 7.705-3.45 7.705-7.705s-3.45-7.705-7.705-7.705h-14.732v15.409h14.732z" fill="#f4fbff"/><g fill="#e4f6ff"><path d="m201.57 322.922h-41.753c.044 4.217 3.473 7.624 7.701 7.624h26.352c4.227 0 7.656-3.407 7.7-7.624z"/><path d="m314.336 330.546c4.228 0 7.657-3.406 7.701-7.624h-41.753c.044 4.217 3.473 7.624 7.701 7.624z"/><path d="m254.103 330.546c4.228 0 7.657-3.406 7.701-7.624h-41.754c.044 4.217 3.473 7.624 7.701 7.624z"/></g><path d="m142.595 322.922h-22.432v7.624h14.732c4.227 0 7.656-3.407 7.7-7.624z" fill="#e4f6ff"/><path d="m134.894 204.878c4.255 0 7.705-3.45 7.705-7.705s-3.45-7.705-7.705-7.705h-14.732v15.409h14.732z" fill="#f4fbff"/><g fill="#e4f6ff"><path d="m362.713 238.833c-.885 0-1.731.156-2.522.431v41.674c.791.274 1.638.431 2.522.431 4.255 0 7.705-3.45 7.705-7.705v-27.126c0-4.255-3.45-7.705-7.705-7.705z"/><path d="m362.713 300.405c-.885 0-1.731.156-2.522.431v14.996c0 3.916-3.174 7.091-7.09 7.091h-12.82c.044 4.217 3.473 7.624 7.701 7.624h9.631c7.061 0 12.805-5.744 12.805-12.806v-9.631c0-4.256-3.45-7.705-7.705-7.705z"/><path d="m360.191 189.729v29.449c.791.274 1.638.431 2.522.431 4.255 0 7.705-3.45 7.705-7.705v-9.631c0-6.177-4.398-11.347-10.227-12.544z"/></g></g></svg>