<?xml version="1.0" encoding="iso-8859-1"?>
<!-- Generator: Adobe Illustrator 19.0.0, SVG Export Plug-In . SVG Version: 6.00 Build 0)  -->
<svg version="1.1" id="Capa_1" xmlns="http://www.w3.org/2000/svg" xmlns:xlink="http://www.w3.org/1999/xlink" x="0px" y="0px"
	 viewBox="0 0 480 480" style="enable-background:new 0 0 480 480;" xml:space="preserve">
<g>
	<g>
		<path d="M472,112H324.56c2.264-7.8,3.422-15.878,3.44-24c0-48.601-39.399-88-88-88s-88,39.399-88,88
			c0.018,8.122,1.176,16.2,3.44,24H8c-4.418,0-8,3.582-8,8v48c0,4.418,3.582,8,8,8h24v232c0,4.418,3.582,8,8,8h104v56
			c0,4.418,3.582,8,8,8h176c4.418,0,8-3.582,8-8v-56h104c4.418,0,8-3.582,8-8V176h24c4.418,0,8-3.582,8-8v-48
			C480,115.582,476.418,112,472,112z M240,16c39.765,0,72,32.235,72,72c0.02,8.178-1.376,16.298-4.128,24h-29.328
			c3.06-8.265,1.203-17.548-4.8-24c8.894-9.75,8.2-24.864-1.55-33.758C267.769,50.205,261.989,47.978,256,48h-8V32h-16v16h-8V32h-16
			v16c-4.418,0-8,3.582-8,8v56h-27.872c-2.752-7.702-4.148-15.822-4.128-24C168,48.235,200.236,16,240,16z M256,80h-40V64h40
			c4.418,0,8,3.582,8,8S260.418,80,256,80z M264,104c0.007,2.156-0.879,4.218-2.448,5.696c-1.459,1.493-3.465,2.325-5.552,2.304h-40
			V96h40C260.418,96,264,99.582,264,104z M320,464H160V224h160V464z M432,400h-96V224h24v-16H120v16h24v176H48V176h384V400z
			 M464,160H16v-32h448V160z"/>
	</g>
</g>
<g>
	<g>
		<path d="M278.528,304c-4.393-12.473-18.066-19.023-30.539-14.63c-9.596,3.38-16.009,12.455-15.989,22.63c0,4.418-3.582,8-8,8
			s-8-3.582-8-8s3.582-8,8-8v-16c-10.134,0.042-19.15,6.445-22.528,16H192v16h9.472c3.378,9.555,12.394,15.958,22.528,16
			c13.255,0,24-10.745,24-24c0-4.418,3.582-8,8-8s8,3.582,8,8s-3.582,8-8,8v16c10.134-0.042,19.15-6.445,22.528-16H288v-16H278.528z
			"/>
	</g>
</g>
<g>
	<g>
		<path d="M240,240c-39.764,0-72,32.235-72,72c0.049,39.744,32.256,71.951,72,72c39.765,0,72-32.236,72-72
			C312,272.235,279.765,240,240,240z M240,368c-30.928,0-56-25.072-56-56c0.035-30.913,25.087-55.965,56-56
			c30.928,0,56,25.072,56,56C296,342.928,270.928,368,240,368z"/>
	</g>
</g>
<g>
	<g>
		<rect x="232" y="264" width="16" height="16"/>
	</g>
</g>
<g>
	<g>
		<rect x="232" y="344" width="16" height="16"/>
	</g>
</g>
<g>
	<g>
		<path d="M192,432v-24h-16v32c0,4.418,3.582,8,8,8h32v-16H192z"/>
	</g>
</g>
<g>
	<g>
		<path d="M288,408v24h-24v16h32c4.418,0,8-3.582,8-8v-32H288z"/>
	</g>
</g>
<g>
	<g>
		<path d="M64,16H48c0,17.673-14.327,32-32,32v16c17.673,0,32,14.327,32,32h16c0-17.673,14.327-32,32-32V48
			C78.327,48,64,33.673,64,16z M56,69.496L55.928,69.4C52.4,64.128,47.872,59.6,42.6,56.072L42.504,56
			c5.35-3.558,9.938-8.146,13.496-13.496c3.558,5.35,8.146,9.938,13.496,13.496C64.146,59.558,59.558,64.146,56,69.496z"/>
	</g>
</g>
<g>
	<g>
		<path d="M432,16h-16c0,17.673-14.327,32-32,32v16c17.673,0,32,14.327,32,32h16c0-17.673,14.327-32,32-32V48
			C446.327,48,432,33.673,432,16z M437.4,56.072c-5.272,3.528-9.8,8.056-13.328,13.328L424,69.496
			c-3.558-5.35-8.146-9.938-13.496-13.496c5.35-3.558,9.938-8.146,13.496-13.496c3.558,5.35,8.146,9.938,13.496,13.496L437.4,56.072
			z"/>
	</g>
</g>
<g>
</g>
<g>
</g>
<g>
</g>
<g>
</g>
<g>
</g>
<g>
</g>
<g>
</g>
<g>
</g>
<g>
</g>
<g>
</g>
<g>
</g>
<g>
</g>
<g>
</g>
<g>
</g>
<g>
</g>
</svg>
